<svg width="18" height="10" viewBox="0 0 18 10" fill="none" xmlns="http://www.w3.org/2000/svg">
  <path
    d="M9 0C3.42 0 0 5 0 5C0 5 3.18 10 9 10C14.82 10 18 5 18 5C18 5 14.58 0 9 0ZM9 8.82716C8.26425 8.82716 7.54503 8.6027 6.93328 8.18217C6.32153 7.76163 5.84473 7.16391 5.56317 6.46459C5.28161 5.76527 5.20794 4.99575 5.35148 4.25336C5.49502 3.51096 5.84931 2.82903 6.36956 2.29379C6.88981 1.75855 7.55265 1.39405 8.27426 1.24638C8.99587 1.09871 9.74384 1.1745 10.4236 1.46416C11.1033 1.75383 11.6843 2.24437 12.0931 2.87374C12.5018 3.50312 12.72 4.24306 12.72 5C12.72 6.01503 12.3281 6.98848 11.6304 7.70621C10.9328 8.42394 9.98661 8.82716 9 8.82716Z"
    fill="#979797" />
  <path
    d="M9.00001 7.65428C10.4249 7.65428 11.58 6.4659 11.58 4.99996C11.58 3.53402 10.4249 2.34564 9.00001 2.34564C7.57512 2.34564 6.42001 3.53402 6.42001 4.99996C6.42001 6.4659 7.57512 7.65428 9.00001 7.65428Z"
    fill="#979797" />
</svg>
