<svg width="23" height="23" viewBox="0 0 23 23" fill="none" xmlns="http://www.w3.org/2000/svg">
<path d="M11.5 22C17.299 22 22 17.299 22 11.5C22 5.70101 17.299 1 11.5 1C5.70101 1 1 5.70101 1 11.5C1 17.299 5.70101 22 11.5 22Z" stroke="white"/>
<path fill-rule="evenodd" clip-rule="evenodd" d="M12.3349 5C10.7181 5 9.67327 6.15914 9.67327 7.95322V9.31485H8.22629C8.10125 9.31485 8 9.42446 8 9.55966V11.5325C8 11.6677 8.10137 11.7772 8.22629 11.7772H9.67327V16.7553C9.67327 16.8905 9.77452 17 9.89956 17H11.7874C11.9125 17 12.0137 16.8904 12.0137 16.7553V11.7772H13.7056C13.8306 11.7772 13.9319 11.6677 13.9319 11.5325L13.9326 9.55966C13.9326 9.49474 13.9087 9.43257 13.8663 9.38663C13.824 9.34069 13.7663 9.31485 13.7062 9.31485H12.0137V8.16058C12.0137 7.60579 12.136 7.32415 12.8045 7.32415L13.7738 7.32377C13.8987 7.32377 14 7.21416 14 7.07909V5.24718C14 5.11223 13.8989 5.00275 13.7741 5.0025L12.3349 5Z" fill="white"/>
</svg>
